<?xml version="1.0" standalone="no"?>
<!DOCTYPE svg PUBLIC "-//W3C//DTD SVG 20010904//EN"
 "http://www.w3.org/TR/2001/REC-SVG-20010904/DTD/svg10.dtd">
<svg version="1.0" xmlns="http://www.w3.org/2000/svg"
 width="100.000000pt" height="40.000000pt" viewBox="0 0 100.000000 40.000000"
 preserveAspectRatio="xMidYMid meet">

<g transform="translate(0.000000,40.000000) scale(0.100000,-0.100000)"
fill="#000000" stroke="none">
<path d="M470 270 c0 -5 5 -10 10 -10 6 0 10 5 10 10 0 6 -4 10 -10 10 -5 0
-10 -4 -10 -10z"/>
<path d="M152 203 l1 -68 6 55 6 55 30 -52 c41 -72 55 -69 55 12 0 37 -4 65
-10 65 -5 0 -10 -24 -10 -52 l0 -53 -28 49 c-40 74 -52 71 -50 -11z"/>
<path d="M286 232 c-4 -6 3 -8 15 -5 12 4 25 0 30 -8 14 -22 11 -27 -18 -31
-20 -2 -28 -9 -28 -23 0 -16 7 -20 33 -21 l33 -1 -3 46 c-3 41 -6 46 -30 49
-14 2 -29 -1 -32 -6z m54 -61 c0 -6 -5 -13 -10 -16 -15 -9 -43 3 -35 15 8 13
45 13 45 1z"/>
<path d="M398 233 c27 -5 27 -10 2 -48 -27 -40 -25 -45 13 -44 23 1 26 3 10 6
l-23 4 20 39 c11 22 20 42 20 45 0 3 -15 4 -32 4 -24 -1 -27 -3 -10 -6z"/>
<path d="M470 190 c0 -27 5 -50 10 -50 6 0 10 23 10 50 0 28 -4 50 -10 50 -5
0 -10 -22 -10 -50z"/>
<path d="M520 188 c0 -27 5 -48 10 -48 6 0 10 18 10 40 0 26 5 42 17 49 14 7
12 9 -10 8 -25 -2 -27 -5 -27 -49z"/>
<path d="M603 232 c-21 -13 -26 -58 -8 -76 35 -34 75 -13 75 40 0 39 -34 57
-67 36z m52 -22 c10 -33 -4 -62 -28 -58 -22 3 -34 35 -23 64 8 21 44 17 51 -6z"/>
<path d="M693 228 c2 -7 10 -30 18 -50 7 -21 18 -38 24 -38 6 0 18 23 27 50 9
28 12 50 7 50 -4 0 -14 -19 -20 -42 l-12 -43 -13 30 c-7 17 -13 36 -14 43 0 6
-5 12 -11 12 -6 0 -9 -6 -6 -12z"/>
</g>
</svg>
